<?xml version="1.0" standalone="no"?>
<!DOCTYPE svg PUBLIC "-//W3C//DTD SVG 1.1//EN" "http://www.w3.org/Graphics/SVG/1.1/DTD/svg11.dtd" >
<svg xmlns="http://www.w3.org/2000/svg">
<metadata>Generated by IcoMoon</metadata>
<defs>
<font id="thmbtck-coffee-bar" horiz-adv-x="1024">
<font-face units-per-em="1024" ascent="960" descent="-64" />
<missing-glyph horiz-adv-x="1024" />
<glyph unicode="&#x20;" horiz-adv-x="512" d="" />
<glyph unicode="&#xe900;" glyph-name="coffee-filter" d="M712.679 440.863c-1.56 4.585-5.844 7.65-10.675 7.65h-369.416c-4.858 0-9.169-3.12-10.688-7.732 0 0-142.221-435.189-142.235-435.285-4.612-38.854 60.586-69.482 98.126-69.482 116.218 0 454.76 0 454.76 0 18.831 0 104.873 7.431 111.894 62.831 4.968 39.278-131.765 442.019-131.765 442.019zM340.731 425.987h353.199l82.921-243.974c-162.681 0-375.397 0-516.359 0l80.239 243.974zM343.236 682.346c-10.182 11.085-98.838 109.841-78.008 163.393 7.171 18.407 25.004 28.959 53.018 31.367l371.059 0.041c35.405 0 57.849-10.292 66.69-30.56 23.361-53.483-67.689-154.018-78.145-165.309-2.135-2.286-332.465-1.259-334.614 1.067zM356.524 701.232c169.346 0 249.818-0.027 308.187-0.944 35.405 39.237 83.455 108.034 70.659 137.281-4.941 11.318-20.446 17.066-46.052 17.066h-370.101c-17.778-1.574-29.205-7.322-32.996-17.066-11.537-29.616 35.719-97.647 70.303-136.336zM626.118 678.719h-233.559c-4.174 0-7.992 2.299-9.949 5.994l-137.034 258.768c-1.848 3.49-1.724 7.691 0.315 11.072s5.693 5.447 9.635 5.447h523.53c4.051 0 7.773-2.162 9.772-5.68 2.012-3.517 1.971-7.828-0.082-11.304l-152.923-258.782c-2.025-3.421-5.721-5.515-9.703-5.515zM399.333 701.232h220.38l139.607 236.255h-485.074l125.087-236.255zM699.815 425.987h-365.037c-14.452 0-29.41 7.158-38.114 18.243-6.993 8.909-9.457 19.502-6.939 29.807 2.682 10.962 9.21 24.497 16.122 38.84 8.745 18.161 18.654 38.744 18.654 50.746s-9.908 32.558-18.654 50.705c-6.911 14.343-13.453 27.905-16.135 38.867-2.518 10.305-0.055 20.884 6.925 29.78 8.69 11.099 23.662 18.27 38.128 18.27h365.037c15.027 0 30.875-7.842 39.456-19.516 6.569-8.923 8.471-19.297 5.406-29.205-3.49-11.126-11.838-24.169-20.679-37.95-10.018-15.629-22.499-35.076-22.732-46.175-0.274-12.673 12.221-34.173 23.211-53.141 8.69-14.931 16.874-29.027 20.255-40.756 2.901-10.045 0.794-20.487-5.926-29.424-8.704-11.605-24.005-19.091-38.977-19.091zM334.778 678.719c-7.691 0-15.889-3.873-20.405-9.648-2.71-3.435-3.627-6.98-2.764-10.524 2.108-8.677 8.143-21.185 14.534-34.447 10.278-21.309 20.884-43.329 20.884-60.477 0-17.162-10.62-39.196-20.884-60.518-6.391-13.248-12.413-25.756-14.534-34.419-0.862-3.545 0.068-7.103 2.764-10.552 4.53-5.762 12.728-9.635 20.405-9.635h365.037c7.76 0 16.601 4.243 20.994 10.1 3.654 4.858 2.614 8.458 2.286 9.635-2.614 9.060-10.127 22.006-18.079 35.692-13.111 22.581-26.673 45.929-26.276 64.938 0.383 17.435 13.562 37.978 26.29 57.835 7.664 11.934 15.574 24.265 18.147 32.503 0.328 1.122 1.396 4.489-2.039 9.156-4.407 5.981-13.371 10.333-21.322 10.333h-365.037z" />
<glyph unicode="&#xe901;" d="M816 623.996h-608c-17.674 0-32-14.326-32-32v-160c0-100.118 43.988-189.786 113.5-251.308 8.892-7.87 18.186-17.428 24.604-28.012 4.186-6.9 5.894-15.024 5.894-23.094v-17.584h384v17.584c0 8.070 1.708 16.194 5.894 23.094 6.416 10.584 15.712 20.142 24.604 28.012 69.514 61.522 113.504 151.19 113.504 251.308v160c0 17.674-14.326 32-32 32z" />
<glyph unicode="&#xe902;" d="M848 543.996v-64c44.188 0 64-19.812 64-64s-19.812-64-64-64h-64v-64h64c70.688 0 128 57.312 128 128s-57.312 128-128 128z" />
<glyph unicode="&#xe903;" d="M992 111.996h-958.236c-15.944 0-30.742-10.87-33.322-26.604-3.282-20.034 12.132-37.396 31.558-37.396h211.778l23.156-46.31c5.42-10.842 16.5-17.69 28.62-17.69h432.892c12.12 0 23.2 6.848 28.62 17.69l23.156 46.31h210.062c15.94 0 30.716 10.892 33.278 26.624 3.262 20.048-12.128 37.376-31.562 37.376z" />
<glyph unicode="&#xe904;" d="M992 111.996h-480c0-35.346-28.654-64-64-64h-204.222l23.156-46.312c5.42-10.84 16.5-17.688 28.62-17.688h432.892c12.12 0 23.2 6.848 28.62 17.688l23.156 46.312h210.060c15.94 0 30.716 10.89 33.278 26.624 3.264 20.046-12.124 37.376-31.56 37.376z" />
<glyph unicode="&#xe905;" d="M409.39 908.95c-7.172 5.204-17.172 3.594-22.344-3.562-5.188-7.156-3.594-17.156 3.562-22.344 16.376-11.876 25.392-27.158 25.392-43.048s-9.016-31.172-25.39-43.046c-24.908-18.048-38.61-42.532-38.61-68.954s13.704-50.906 38.61-68.954c2.844-2.062 6.126-3.046 9.376-3.046 4.954 0 9.844 2.296 12.968 6.61 5.188 7.156 3.594 17.156-3.562 22.344-16.376 11.874-25.392 27.156-25.392 43.046s9.016 31.172 25.39 43.046c24.906 18.048 38.61 42.532 38.61 68.954s-13.704 50.906-38.61 68.954z" />
<glyph unicode="&#xe906;" d="M537.39 908.95c-7.188 5.204-17.172 3.594-22.344-3.562-5.188-7.156-3.594-17.156 3.562-22.344 16.376-11.876 25.392-27.158 25.392-43.048s-9.016-31.172-25.39-43.046c-24.908-18.048-38.61-42.532-38.61-68.954s13.704-50.906 38.61-68.954c2.844-2.062 6.126-3.046 9.376-3.046 4.954 0 9.844 2.296 12.968 6.61 5.188 7.156 3.594 17.156-3.562 22.344-16.376 11.874-25.392 27.156-25.392 43.046s9.016 31.172 25.39 43.046c24.906 18.048 38.61 42.532 38.61 68.954s-13.704 50.906-38.61 68.954z" />
<glyph unicode="&#xe907;" d="M665.39 771.044c24.906 18.046 38.61 42.53 38.61 68.952s-13.704 50.906-38.61 68.954c-7.188 5.204-17.188 3.594-22.344-3.562-5.188-7.156-3.594-17.156 3.562-22.344 16.376-11.876 25.392-27.158 25.392-43.048s-9.016-31.172-25.39-43.046c-24.908-18.048-38.61-42.532-38.61-68.954s13.704-50.906 38.61-68.954c2.844-2.062 6.126-3.046 9.376-3.046 4.954 0 9.844 2.296 12.968 6.61 5.188 7.156 3.594 17.156-3.562 22.344-16.376 11.874-25.392 27.156-25.392 43.046s9.016 31.172 25.39 43.048z" />
<glyph unicode="&#xe908;" d="M816 623.996h-18.22c-62.602 0-115.292-46.856-122.608-109.028l-31.856-270.77c-6.722-57.138-55.148-100.202-112.68-100.202h-179.586c-17.498 0-31.522-14.5-31.050-31.992v-0.008h383.998v17.584c0 8.074 1.708 16.2 5.896 23.102 6.418 10.58 15.712 20.136 24.604 28.006 69.512 61.524 113.502 151.19 113.502 251.308v160c0 17.674-14.328 32-32 32z" />
<glyph unicode="&#xe909;" d="M808 560h-64c-17.178 0-33.454-3.868-48-10.778l0.004-101.184c0.022 26.45 21.542 47.962 47.996 47.962h64c26.468 0 48-21.532 48-48v-192c0-26.466-21.532-48-48-48h-64c-26.424 0-47.916 21.464-47.988 47.874l0.004-101.104c14.546-6.906 30.812-10.77 47.984-10.77h64c61.856 0 112 50.144 112 112v192c0 61.856-50.144 112-112 112z" />
<glyph unicode="&#xe90a;" d="M632 32c-8.844 0-16-7.156-16-16h-416c0 8.844-7.156 16-16 16s-16-7.156-16-16c0-44.11 35.89-80 80-80h320c44.11 0 80 35.89 80 80 0 8.844-7.156 16-16 16z" />
<glyph unicode="&#xe90b;" d="M680 672h-544c-17.64 0-32-14.36-32-32v-560c0-44.11 35.89-80 80-80h448c44.11 0 80 35.89 80 80v560c0 17.64-14.36 32-32 32z" />
<glyph unicode="&#xe90c;" d="M392 704c-8.844 0-16 7.156-16 16 0 24.578 11.016 37.422 19.86 47.734 7.312 8.516 12.14 14.156 12.14 26.89 0 12.75-4.828 18.39-12.156 26.938-8.844 10.314-19.844 23.156-19.844 47.75s11 37.438 19.844 47.75c7.328 8.548 12.156 14.188 12.156 26.938 0 8.844 7.156 16 16 16s16-7.156 16-16c0-24.594-11-37.438-19.844-47.75-7.328-8.546-12.156-14.188-12.156-26.938s4.828-18.39 12.156-26.938c8.844-10.312 19.844-23.156 19.844-47.748 0-24.578-11.016-37.422-19.86-47.734-7.312-8.516-12.14-14.156-12.14-26.89 0-8.846-7.156-16.002-16-16.002z" />
<glyph unicode="&#xe90d;" d="M472 704c-8.844 0-16 7.156-16 16 0 24.578 11.016 37.422 19.86 47.734 7.312 8.516 12.14 14.156 12.14 26.89 0 12.75-4.828 18.39-12.156 26.938-8.844 10.314-19.844 23.156-19.844 47.75 0 8.844 7.156 16 16 16s16-7.156 16-16c0-12.75 4.828-18.39 12.156-26.938 8.844-10.312 19.844-23.156 19.844-47.748 0-24.578-11.016-37.422-19.86-47.734-7.312-8.516-12.14-14.156-12.14-26.89 0-8.846-7.156-16.002-16-16.002z" />
<glyph unicode="&#xe90e;" d="M312 704c-8.844 0-16 7.156-16 16 0 24.578 11.016 37.422 19.86 47.734 7.312 8.516 12.14 14.156 12.14 26.89 0 12.75-4.828 18.39-12.156 26.938-8.844 10.314-19.844 23.156-19.844 47.75 0 8.844 7.156 16 16 16s16-7.156 16-16c0-12.75 4.828-18.39 12.156-26.938 8.844-10.312 19.844-23.156 19.844-47.748 0-24.578-11.016-37.422-19.86-47.734-7.312-8.516-12.14-14.156-12.14-26.89 0-8.846-7.156-16.002-16-16.002z" />
<glyph unicode="&#xe90f;" d="M408 672h-272c-17.64 0-32-14.36-32-32v-560c0-44.11 35.89-80 80-80h224v672z" />
<glyph unicode="&#xe910;" glyph-name="espresso-machine" d="M458.92 714.505c23.043 0 44.019 8.984 59.644 23.614 0.856 0.584 1.674 1.247 2.433 2.010 0.748 0.752 1.4 1.564 1.973 2.411 14.453 15.592 23.311 36.439 23.311 59.326 0 48.17-39.191 87.361-87.361 87.361-23.041 0-44.014-8.982-59.64-23.61-0.858-0.586-1.679-1.252-2.437-2.017-0.748-0.752-1.4-1.564-1.973-2.411-14.453-15.59-23.311-36.437-23.311-59.323 0-48.17 39.191-87.361 87.361-87.361zM404.734 801.866c0 8.853 2.148 17.209 5.929 24.598l73.12-72.717c-7.453-3.868-15.904-6.067-24.864-6.067-29.88 0-54.186 24.308-54.186 54.186zM513.106 801.866c0-8.853-2.148-17.209-5.929-24.598l-73.12 72.717c7.453 3.868 15.904 6.067 24.864 6.067 29.88 0 54.186-24.308 54.186-54.186zM960.233 613.459c-6.792 6.445-16.048 9.857-25.397 9.364l-87.77-4.618v135.989c10.539 5.854 17.693 17.092 17.693 29.979v141.546c0 18.903-15.378 34.281-34.281 34.281h-743.119c-18.903 0-34.281-15.378-34.281-34.281v-141.546c0-12.887 7.155-24.125 17.693-29.979v-577.001c-10.539-5.854-17.693-17.092-17.693-29.979v-176.933c0-18.903 15.378-34.281 34.281-34.281h743.119c18.903 0 34.281 15.378 34.281 34.281v176.933c0 12.887-7.155 24.125-17.693 29.979v312.922l87.77-4.62c0.595-0.031 1.188-0.046 1.78-0.046 8.734 0 17.258 3.375 23.618 9.411 6.79 6.443 10.687 15.508 10.687 24.87v68.862c-0.002 9.362-3.899 18.425-10.689 24.868zM634.747 607.030v0.21c0 9.161-7.425 16.587-16.587 16.587s-16.587-7.427-16.587-16.587v-36.492h-41.787l1.267 5.071c12.118 5.29 20.615 17.375 20.615 31.421v44.594c14.356 6.657 26.845 17.193 35.915 30.802l28.754 43.13c10.072 15.106 26.927 24.127 45.087 24.127h122.469v-133.434l-179.145-9.428zM401.096 535.361l-9.4 37.598h134.443l-9.4-37.598h-115.643zM372.944 643.732h171.952c1.205 0 2.4 0.062 3.596 0.111v-36.603c0-0.61-0.498-1.106-1.106-1.106h-176.933c-0.608 0-1.106 0.495-1.106 1.106v36.603c1.197-0.049 2.391-0.111 3.596-0.111zM86.255 925.719c0 0.61 0.498 1.106 1.106 1.106h743.119c0.608 0 1.106-0.495 1.106-1.106v-141.546c0-0.61-0.498-1.106-1.106-1.106h-139.056c-29.276 0-56.45-14.544-72.689-38.901l-28.754-43.13c-10.072-15.108-26.927-24.129-45.085-24.129h-171.952c-18.16 0-35.015 9.021-45.087 24.129l-28.754 43.13c-16.238 24.357-43.411 38.901-72.686 38.901h-139.056c-0.608 0-1.106 0.495-1.106 1.106v141.546zM831.585-29.719c0-0.61-0.498-1.106-1.106-1.106h-743.119c-0.608 0-1.106 0.495-1.106 1.106v176.933c0 0.61 0.498 1.106 1.106 1.106h36.492v-124.959c0-9.161 7.425-16.587 16.587-16.587h636.959c9.163 0 16.587 7.427 16.587 16.587v124.959h36.492c0.608 0 1.106-0.495 1.106-1.106v-176.933zM760.812 148.32v-108.371h-179.145v36.492c0 18.903-15.378 34.281-34.281 34.281h-176.933c-18.903 0-34.281-15.378-34.281-34.281v-36.492h-179.145v108.371h603.784zM369.348 39.948v36.492c0 0.61 0.498 1.106 1.106 1.106h176.933c0.608 0 1.106-0.495 1.106-1.106v-36.492h-179.145zM813.892 181.495h-709.944v568.397h122.469c18.158 0 35.013-9.021 45.085-24.129l8.979-13.469h-16.187c-48.17 0-87.361-39.191-87.361-87.361v-124.959h-1.115c-0.024 0-0.051 0-0.075 0h-17.609c-9.163 0-16.587-7.427-16.587-16.587 0-8.946 7.088-16.22 15.955-16.557l-15.873-158.727c-0.467-4.662 1.062-9.307 4.207-12.781s7.613-5.456 12.299-5.456h70.773c4.687 0 9.154 1.982 12.299 5.456s4.673 8.117 4.207 12.781l-15.873 158.727c8.867 0.336 15.955 7.608 15.955 16.557 0 9.161-7.425 16.587-16.587 16.587h-17.6c-0.031 0-0.060 0-0.091 0h-1.108v124.959c0 29.877 24.306 54.186 54.186 54.186h38.465c8.809-11.905 20.325-21.219 33.414-27.285v-44.594c0-14.044 8.497-26.129 20.615-31.421l15.267-61.068c1.847-7.385 8.482-12.564 16.092-12.564h18.799v-18.799c0-9.161 7.425-16.587 16.587-16.587s16.587 7.427 16.587 16.587v18.799h37.598v-18.799c0-9.161 7.425-16.587 16.587-16.587s16.587 7.427 16.587 16.587v18.799h18.799c7.61 0 14.245 5.18 16.092 12.564l5.706 22.822h50.081v-36.492c0-9.161 7.425-16.587 16.587-16.587s16.587 7.427 16.587 16.587v0.21l179.145-9.428v-310.367zM210.579 323.041h-34.117l14.376 143.758h5.363l14.378-143.758zM937.745 519.729c0-0.13 0-0.476-0.345-0.803-0.341-0.327-0.694-0.307-0.818-0.301l-301.835 15.886v39.299l301.835 15.886c0.137 0.004 0.473 0.024 0.818-0.301 0.345-0.327 0.345-0.672 0.345-0.803v-68.865zM140.441 838.359h35.387c9.163 0 16.587 7.427 16.587 16.587s-7.425 16.587-16.587 16.587h-35.387c-9.163 0-16.587-7.427-16.587-16.587s7.425-16.587 16.587-16.587zM228.907 838.359h35.387c9.163 0 16.587 7.427 16.587 16.587s-7.425 16.587-16.587 16.587h-35.387c-9.163 0-16.587-7.427-16.587-16.587s7.425-16.587 16.587-16.587zM653.546 838.359h35.387c9.163 0 16.587 7.427 16.587 16.587s-7.425 16.587-16.587 16.587h-35.387c-9.163 0-16.587-7.427-16.587-16.587s7.425-16.587 16.587-16.587zM742.013 838.359h35.387c9.163 0 16.587 7.427 16.587 16.587s-7.425 16.587-16.587 16.587h-35.387c-9.163 0-16.587-7.427-16.587-16.587s7.425-16.587 16.587-16.587z" />
<glyph unicode="&#xe911;" glyph-name="espresso-cup-bn" d="M454.419 673.682c2.896-1.965 6.286-3.004 9.806-3.004h0.033c9.647 0 17.496 7.844 17.496 17.484 0 1.641-0.225 3.259-0.669 4.822-8.087 35.482-4.318 63.951 11.201 84.628 19.456 25.919 28.067 59.21 23.035 89.048-4.462 26.573-18.748 48.66-41.273 63.846-5.845 3.964-13.887 3.943-19.738-0.078-5.956-4.102-8.75-11.309-7.108-18.4 8.756-37.36 0.732-61.143-19.369-97.297-13.077-23.522-18.412-49.972-15.027-74.477 3.85-27.86 18.258-50.893 41.612-66.574zM601.618 685.258c2.74-1.869 5.938-2.857 9.254-2.857h0.015c9.077 0 16.461 7.384 16.461 16.461 0 1.512-0.207 3.007-0.615 4.456-5.656 24.947-3.088 44.844 7.636 59.132 14.88 19.816 21.463 45.321 17.607 68.209-3.451 20.518-14.481 37.573-31.89 49.323-5.485 3.7-12.935 3.739-18.574-0.105-5.554-3.841-8.219-10.829-6.649-17.292 6.205-26.471 0.732-42.665-13.884-68.95-9.992-17.97-14.064-38.209-11.465-56.981 2.971-21.523 14.103-39.317 32.103-51.397zM308.354 685.258c2.74-1.869 5.938-2.857 9.254-2.857h0.015c9.077 0 16.461 7.384 16.461 16.461 0 1.503-0.207 2.995-0.612 4.444-5.662 24.953-3.094 44.853 7.63 59.144 14.883 19.819 21.463 45.321 17.607 68.209-3.448 20.518-14.478 37.573-31.89 49.323-5.482 3.703-12.92 3.748-18.574-0.105-5.554-3.841-8.219-10.829-6.649-17.292 6.205-26.474 0.732-42.668-13.884-68.95-9.992-17.973-14.064-38.209-11.462-56.981 2.968-21.523 14.1-39.317 32.103-51.397zM859.827 253.776c90.524 0 164.173 73.649 164.173 164.173s-73.646 164.173-164.173 164.173c-11.534 0-22.792-1.209-33.66-3.484h-732.134c-19.504 0-30.738-8.402-36.73-15.444-12.269-14.43-13.959-36.031-11.453-51.439 10.541-64.761 39.671-196.031 112.768-305.191-6.148-1.563-12.2-3.163-18.093-4.828-91.929-25.958-140.523-60.756-140.523-100.642s48.594-74.687 140.526-100.639c86.615-24.452 201.591-37.921 323.747-37.921s237.132 13.467 323.747 37.921c91.932 25.952 140.526 60.753 140.526 100.639s-48.594 74.687-140.526 100.639c-5.602 1.581-11.333 3.112-17.169 4.603 11.849 17.754 23.005 36.805 33.444 57.128 17.355-6.259 36.049-9.689 55.532-9.689zM933.983 417.946c0-40.889-33.264-74.156-74.156-74.156-6.781 0-13.347 0.933-19.591 2.647 16.185 44.643 29.229 92.931 38.605 143.184 31.704-8.417 55.142-37.357 55.142-71.675z" />
<glyph unicode="&#xe912;" glyph-name="tea-cup-bn" d="M362.236 754.449c9.663-5.295 15.135-11.794 16.732-19.867 4.346-21.961-15.884-53.363-23.973-63.527-8.531-10.521-6.928-26.015 3.58-34.547 4.359-3.537 9.85-5.485 15.455-5.485 7.438 0 14.385 3.312 19.058 9.074 7.324 9.015 43.372 56.403 34.059 103.888-4.441 22.619-18.721 41.121-41.307 53.507-9.69 5.311-15.167 11.807-16.751 19.863-4.29 21.833 15.894 53.003 23.987 63.114 8.521 10.488 6.941 25.966-3.528 34.514-4.372 3.56-9.876 5.521-15.505 5.521-7.409 0-14.336-3.289-19.022-9.025-7.317-8.966-43.353-56.095-34.118-103.469 4.411-22.629 18.702-41.15 41.333-53.562zM525.014 704.816c9.663-5.298 15.135-11.797 16.732-19.873 4.346-21.961-15.878-53.359-23.967-63.52-4.136-5.092-6.041-11.486-5.37-18.005 0.671-6.532 3.848-12.406 8.924-16.526 4.359-3.547 9.856-5.501 15.475-5.501 7.432 0 14.382 3.305 19.058 9.074 7.324 9.019 43.372 56.413 34.059 103.885-4.437 22.619-18.721 41.121-41.314 53.51-9.683 5.311-15.161 11.803-16.738 19.86-4.297 21.833 15.887 53.003 23.98 63.118 8.521 10.488 6.941 25.966-3.528 34.511-4.372 3.56-9.876 5.521-15.498 5.521-7.415 0-14.349-3.292-19.022-9.022-7.317-8.966-43.359-56.085-34.124-103.473 4.408-22.629 18.698-41.147 41.333-53.559zM920.92 441.239c-3.835 0-7.706-0.245-11.843-0.749-4.948-0.596-9.87 1.073-13.417 4.549-3.547 3.472-5.331 8.371-4.837 13.312 0.998 10.079 1.682 20.299 2.032 30.541h-892.856c4.774-138.854 70.127-262.15 169.709-342.952-81.721-17.209-119.864-40.578-119.864-73.288 0-33.751 40.604-57.555 127.777-74.911 72.032-14.343 167.494-22.242 268.803-22.242s196.772 7.9 268.803 22.242c87.18 17.357 127.777 41.163 127.777 74.911 0 32.668-38.048 56.020-119.55 73.223 37.096 30.116 69.839 66.485 96.637 108.342 2.762 4.313 7.382 7.085 12.487 7.487 5.131 0.389 10.105-1.607 13.512-5.429 19.693-22.111 46.268-34.285 74.83-34.285 56.838 0 103.080 49.174 103.080 109.625 0 60.444-46.242 109.625-103.080 109.625zM795.585 72.651c-8.367-7.003-36.317-21.081-103.784-33.113-67.333-12.010-154.473-18.623-245.376-18.623-90.897 0-178.044 6.613-245.37 18.623-67.467 12.033-95.416 26.11-103.784 33.113 8.367 7.003 36.317 21.081 103.784 33.113 6.833 1.221 13.914 2.366 21.136 3.475 65.945-39.409 142.558-62.021 224.233-62.021 80.347 0 157.496 21.922 224.606 61.963 7.095-1.090 14.055-2.219 20.773-3.416 67.463-12.033 95.413-26.11 103.78-33.113zM951.592 316.604c-9.729-22.049-31.47-33.807-48.556-26.267s-23.047 31.52-13.319 53.569c9.722 22.043 31.457 33.807 48.549 26.267 17.082-7.543 23.047-31.526 13.325-53.569z" />
<glyph unicode="&#xe913;" glyph-name="espresso-beans" d="M647.405 417.232l7.106-0.624c49.281 38.128 51.18 119.068 4.104 181.459-46.003 60.564-121.664 81.955-171.626 48.12 145.028-60.68 31.703-197.76 160.416-228.956zM467.629 616.965l-7.411 1.189c-49.194-38.113-51.079-119.068-4.075-181.445 45.988-60.593 121.679-81.955 171.641-48.106-139.096 41.319-35.996 181.459-160.155 228.361zM875.462 373.202l-1.784 6.918c-52.355 33.763-129.307 8.6-172.467-56.561-41.783-63.551-36.75-142.012 11.805-177.862 8.919 156.949 175.905 95.748 162.446 227.506zM747.011 137.168l1.363-7.382c52.312-33.705 129.278-8.513 172.438 56.59 41.826 63.537 36.75 142.026-11.805 177.862 7.353-144.912-159.125-94.384-161.996-227.071zM244.749 629.655l0.595 7.106c-38.244 49.179-119.184 50.905-181.459 3.684-60.462-46.133-81.68-121.853-47.714-171.728 60.346 145.173 197.673 32.153 228.579 160.938zM45.423 449.414l-1.16-7.411c38.215-49.121 119.184-50.803 181.459-3.655 60.477 46.119 81.68 121.853 47.7 171.742-40.999-139.169-181.372-36.402-227.999-160.677zM469.282 167.247l6.541 2.857c25.119 57.011-11.805 129.061-82.942 161.431-69.309 31.297-146.014 14.010-173.787-39.578 156.398 15.866 122.172-158.675 250.188-124.71zM216.005 257.063l-7.063-2.494c-25.090-56.953 11.892-129.017 82.971-161.416 69.309-31.312 146.029-13.995 173.787 39.593-141.968-30.035-118.198 142.302-249.695 124.318zM754.204 630.467l-2.669-6.642c22.117-58.229 98.996-83.652 172.395-56.764 71.339 26.352 113.847 92.484 96.009 150.162-100.272-121.055-198.384 27.28-265.735-86.756zM997.663 744.242l3.278 6.758c-22.102 58.171-99.011 83.551-172.38 56.735-71.368-26.323-113.862-92.513-96.023-150.177 80.041 121.026 184.055-18.419 265.126 86.683z" />
<glyph unicode="&#xe914;" glyph-name="coffee-machine" d="M292.422 700.663c35.793 0 64.913 29.12 64.913 64.911s-29.12 64.911-64.913 64.911c-35.791 0-64.911-29.12-64.911-64.911s29.12-64.911 64.911-64.911zM292.422 796.482c17.044 0 30.911-13.866 30.911-30.908s-13.866-30.908-30.911-30.908-30.908 13.866-30.908 30.908 13.866 30.908 30.908 30.908zM465.2 700.663c35.791 0 64.911 29.12 64.911 64.911s-29.12 64.911-64.911 64.911c-35.793 0-64.913-29.12-64.913-64.911s29.12-64.911 64.913-64.911zM465.2 796.482c17.044 0 30.908-13.866 30.908-30.908s-13.864-30.908-30.908-30.908-30.911 13.866-30.911 30.908 13.866 30.908 30.911 30.908zM861.092 57.21h-60.937v59.035c0 9.389-7.61 17.001-17.001 17.001h-13.744c8.498 12.452 13.476 27.488 13.476 43.668v197.056c0 16.015-4.876 30.913-13.216 43.292 26.545-3.101 47.218-25.715 47.218-53.080v-169.827c0-9.389 7.61-17.001 17.001-17.001s17.001 7.612 17.001 17.001v169.827c0 48.225-39.234 87.459-87.459 87.459h-35.816v46.47c0 9.389-7.61 17.001-17.001 17.001h-115.876v50.065h57.804c8.020 0 14.952 5.606 16.627 13.449l77.072 360.821c1.072 5.019-0.181 10.253-3.409 14.245s-8.086 6.306-13.218 6.306h-566.709c-9.392 0-17.001-7.612-17.001-17.001v-989.997c0-9.389 7.61-17.001 17.001-17.001h698.185c9.392 0 17.001 7.612 17.001 17.001v87.207c0 9.392-7.61 17.001-17.001 17.001zM261.514 57.21v507.966h240.285v-50.065h-189.281c-7.102 0-13.456-4.414-15.931-11.069-2.48-6.655-0.56-14.15 4.812-18.794l51.008-44.106c-23.147-13.463-38.754-38.523-38.754-67.175v-197.056c0-16.181 4.978-31.214 13.476-43.668h-13.744c-9.392 0-17.001-7.612-17.001-17.001v-59.035h-34.871zM330.385 99.248h435.77v-42.034h-435.77v42.034zM391.322 133.251c-24.078 0-43.668 19.59-43.668 43.668v197.056c0 24.078 19.59 43.668 43.668 43.668h313.896c24.078 0 43.668-19.59 43.668-43.668v-197.056c0-24.078-19.59-43.668-43.668-43.668h-313.896zM693.615 451.644h-301.362l-34.080 29.469h335.44v-29.469zM560.738 515.115h-24.935v50.065h24.935v-50.065zM702.182 895.944h-440.666v30.058h447.086l-6.42-30.058zM844.093-29.993h-664.183v955.995h47.604v-47.060c0-9.389 7.61-17.001 17.001-17.001h450.402l-56.127-262.758h-394.278c-9.392 0-17.001-7.612-17.001-17.001v-541.969c0-9.389 7.61-17.001 17.001-17.001h599.578v-53.205zM701.354 388.587c-9.392 0-17.001-7.612-17.001-17.001v-187.005c0-9.389 7.61-17.001 17.001-17.001s17.001 7.612 17.001 17.001v187.005c0 9.389-7.612 17.001-17.001 17.001z" />
<glyph unicode="&#xe915;" glyph-name="coffee-grounds" d="M820.866 809.731c-0.23 3.831-2.327 7.007-5.273 9.068l-72.661 134.837c-2.109 3.916-6.207 6.364-10.668 6.364h-523.371c-3.94 0-7.625-1.94-9.892-5.152-1.515-1.297-2.837-2.837-3.6-4.837l-41.010-108.786c-1.382-3.661-0.909-7.77 1.273-11.031s5.807-5.261 9.722-5.358l78.747-2.218 6.51-16.886-30.524-776.971c-0.133-3.176 0.994-6.267 3.14-8.619l72.795-80.165c2.291-2.534 5.564-3.976 8.971-3.976 0.085 0 0.158 0 0.242 0l553.252 10.68c3.285 0.061 6.413 1.467 8.667 3.891 2.243 2.424 3.382 5.649 3.2 8.934l-49.52 850.226zM725.026 935.755l61.763-114.617h-516.085l-44.15 114.617h498.471zM183.072 848.596l25.251 67.012 26.378-68.455-51.629 1.443zM268.85 651.789l25.202-673.555-49.52 54.538 24.317 619.016zM318.976-39.476l-31.203 833.994h509.697l47.968-823.836-526.462-10.159zM638.267 486.998c-9.94-111.101-126.957-63.848-120.46-157.591l1.103-4.934c36.343-25.154 91.5-9.092 123.6 36.113 31.106 44.113 29.36 99.864-4.243 126.412zM614.361 493.81l-0.788 5.261c-36.319 25.118-91.487 9.043-123.587-36.125-31.118-44.089-29.348-99.864 4.267-126.4-1.879 102.931 114.993 63.254 120.108 157.263z" />
<glyph unicode="&#xe916;" glyph-name="coffee-cup-bn" d="M404.149 714.298c2.739-1.859 5.946-2.844 9.277-2.844h0.034c9.124 0 16.548 7.419 16.548 16.54 0 1.55-0.213 3.082-0.636 4.563-7.646 33.556-4.081 60.483 10.591 80.037 18.402 24.517 26.547 56.005 21.79 84.223-4.223 25.133-17.732 46.024-39.039 60.384-5.526 3.749-13.129 3.732-18.665-0.071-5.636-3.88-8.278-10.702-6.723-17.405 8.281-35.333 0.69-57.827-18.319-92.022-12.365-22.241-17.414-47.255-14.213-70.442 3.647-26.354 17.272-48.141 39.354-62.964zM543.375 725.247c2.591-1.771 5.616-2.705 8.752-2.705h0.017c8.582 0 15.566 6.984 15.566 15.569 0 1.416-0.193 2.821-0.576 4.192-5.358 23.609-2.926 42.434 7.22 55.954 14.074 18.748 20.297 42.868 16.648 64.51-3.261 19.409-13.693 35.543-30.159 46.651-5.182 3.502-12.206 3.556-17.578-0.102-5.247-3.638-7.762-10.245-6.283-16.35 5.872-25.040 0.695-40.356-13.131-65.214-9.451-17-13.302-36.142-10.841-53.893 2.81-20.357 13.339-37.186 30.366-48.612zM266.002 725.247c2.591-1.771 5.616-2.705 8.752-2.705h0.014c8.585 0 15.569 6.984 15.569 15.569 0 1.416-0.193 2.821-0.576 4.192-5.358 23.609-2.929 42.434 7.214 55.954 14.076 18.745 20.3 42.865 16.653 64.513-3.261 19.409-13.693 35.543-30.159 46.651-5.185 3.502-12.206 3.556-17.578-0.102-5.247-3.638-7.762-10.245-6.283-16.35 5.872-25.037 0.695-40.353-13.131-65.214-9.451-17-13.302-36.142-10.841-53.893 2.81-20.36 13.339-37.189 30.366-48.615zM955.048 363.228c0 110.789-87.524 201.503-197.056 206.676v11.128c0 49.074-20.019 69.094-69.096 69.094h-550.845c-49.077 0-69.099-20.019-69.099-69.094v-477.233c0-25.275 11.267-66.318 36.428-101.044 22.068-30.454 62.776-66.755 131.376-66.755h353.435c68.6 0 109.308 36.304 131.376 66.758 25.162 34.723 36.426 75.769 36.426 101.044v52.753c109.532 5.171 197.056 95.884 197.056 206.674zM757.993 256.102v214.251c54.716-5.003 97.726-51.126 97.726-107.126s-43.010-102.122-97.726-107.126z" />
<glyph unicode="&#xe917;" glyph-name="espresso-tamper" d="M650.487 556.617c125.267 0.045 237.093-0.082 237.093-0.647l-18.098-384.256c-4.062-89.020-67.381-161.979-149.712-161.979h-237.134c-84.836 0-150.102 75.070-154.294 167.033l-18.098 379.206c0 0.216 135.933 0.561 275.923 0.643v73.606c-178.91-0.175-353.717 0.472-353.717 0.089h-173.819v-361.108h190.987l5.76-121.161c5.314-116.579 88.203-212.043 195.933-212.043h301.107c104.49 0 184.829 92.695 190.013 205.696l22.936 488.393-314.883 0.175v-73.646zM623.103 858.486v42.383c7.57 6.068 12.438 15.452 12.438 25.931 0 18.354-14.842 33.2-33.204 33.2-18.354 0-33.204-14.842-33.204-33.2 0-10.13 4.515-19.212 11.687-25.277v-42.981c-135.215-4.965-304.534-66.051-345.359-210.445v0l726.583-1.706c-44.289 139.976-203.325 206.58-338.941 212.095zM602.114 630.312v-402.012h-92.833v-36.414h218.39v36.414h-93.424v401.967z" />
<glyph unicode="&#xe918;" glyph-name="tea-strainer" d="M762.71 541.897c0 112.78-74.859 208.395-177.495 239.793l-0.030 102.867c0.609 19.913-6.674 38.761-20.526 53.097-13.923 14.411-32.622 22.346-52.658 22.346s-38.735-7.934-52.658-22.346c-13.852-14.336-21.135-33.184-20.526-53.097l-0.030-102.867c-102.636-31.399-177.495-127.013-177.495-239.793 0-112.782 74.857-208.395 177.493-239.795l0.032-290.657c-0.609-19.915 6.674-38.763 20.526-53.099 13.923-14.411 32.622-22.346 52.658-22.346s38.735 7.934 52.658 22.346c13.852 14.336 21.135 33.184 20.526 53.099l0.024 182.553c0.002 8.879-7.193 16.074-16.072 16.077-0.002 0-0.002 0-0.002 0-8.877 0-16.072-7.195-16.074-16.072l-0.024-182.815c0-0.186 0.002-0.371 0.011-0.555 0.386-11.233-3.701-21.868-11.509-29.952-7.81-8.082-18.297-12.534-29.536-12.534s-21.728 4.452-29.536 12.534c-7.81 8.082-11.895 18.717-11.509 29.952 0.009 0.184 0.011 0.369 0.011 0.555l-0.032 283.381c13.367-2.212 27.082-3.382 41.067-3.382s27.699 1.17 41.067 3.382l-0.002-16.945c-0.002-8.879 7.193-16.074 16.072-16.077 0.002 0 0.002 0 0.002 0 8.877 0 16.072 7.195 16.074 16.072l0.002 24.482c102.636 31.399 177.493 127.013 177.493 239.795zM470.954 885.368c-0.386 11.233 3.701 21.868 11.509 29.952 7.81 8.080 18.299 12.532 29.538 12.532s21.728-4.452 29.536-12.534c7.81-8.082 11.895-18.717 11.509-29.952-0.009-0.184-0.011-0.371-0.011-0.557l0.028-95.585c-13.367 2.212-27.080 3.382-41.063 3.382s-27.697-1.17-41.063-3.382l0.028 95.585c-0.002 0.189-0.004 0.375-0.013 0.559zM512.001 323.332c-120.515 0-218.562 98.047-218.562 218.564s98.045 218.56 218.562 218.56 218.562-98.045 218.562-218.562-98.047-218.562-218.562-218.562zM686.565 457.391c12.422 25.558 19.399 54.233 19.399 84.506 0 74.602-42.342 139.489-104.248 171.925-2.184 1.991-4.912 3.386-7.943 3.931-24.024 11.216-50.705 17.645-78.822 18.068-1.046 0.214-2.128 0.326-3.238 0.326-1.121 0-2.214-0.116-3.268-0.334-27.894-0.504-54.364-6.927-78.214-18.061-3.031-0.547-5.759-1.942-7.943-3.931-61.908-32.436-104.248-97.323-104.248-171.925 0-30.276 6.976-58.948 19.401-84.506 0.334-0.849 0.739-1.655 1.207-2.426 18.706-37.151 49.003-67.502 86.116-86.27 0.782-0.476 1.603-0.889 2.467-1.228 25.627-12.504 54.394-19.534 84.774-19.534s59.149 7.028 84.774 19.534c0.862 0.339 1.685 0.752 2.467 1.228 37.115 18.771 67.412 49.119 86.116 86.27 0.465 0.772 0.87 1.58 1.205 2.428zM363.009 605.016h54.010v-47.044h-66.031c1.64 16.533 5.77 32.344 12.021 47.044zM673.013 557.971h-66.031v47.044h54.010c6.252-14.701 10.384-30.511 12.021-47.044zM574.833 557.971h-47.046v47.044h47.046v-47.044zM527.786 637.164v65.766c16.529-1.607 32.342-5.699 47.046-11.919v-53.847h-47.046zM495.637 637.164h-46.47v53.847c14.536 6.147 30.147 10.228 46.47 11.876v-65.723zM495.637 605.016v-47.044h-46.47v47.044h46.47zM350.987 525.822h66.031v-46.472h-54.248c-6.117 14.54-10.165 30.153-11.784 46.472zM449.167 525.822h46.47v-46.472h-46.47v46.472zM495.637 447.202v-66.297c-16.321 1.648-31.934 5.727-46.47 11.876v54.421h46.47zM527.786 447.202h47.046v-54.421c-14.705-6.22-30.518-10.311-47.046-11.919v66.34zM527.786 479.35v46.472h47.046v-46.472h-47.046zM606.981 525.822h66.031c-1.618-16.319-5.667-31.93-11.784-46.472h-54.248v46.472zM642.684 637.164h-35.702v35.619c13.67-9.947 25.725-21.97 35.702-35.619zM417.019 672.783v-35.619h-35.702c9.977 13.648 22.033 25.672 35.702 35.619zM380.907 447.202h36.112v-36.195c-13.86 10.088-26.055 22.313-36.112 36.195zM606.981 411.009v36.195h36.112c-10.056-13.884-22.251-26.109-36.112-36.195z" />
<glyph unicode="&#xe919;" glyph-name="teapot" d="M1007.66 6.262h-5.447v49.021c0 117.76-48.171 224.469-125.828 301.495 2.329 84.105 26.064 159.482 49.043 232.434 20.894 66.327 15.885 126.856-14.484 175.036-29.426 46.686-80.244 77.804-147.552 90.602l3.874 27.323c0.009 0.061 3.063 21.604 3.063 21.604 1.266 8.935-4.948 17.203-13.885 18.473-8.933 1.266-17.203-4.95-18.473-13.885l-0.813-5.726c-15.271 1.551-31.125 2.342-47.337 2.342h-224.918c-16.205 0-32.055-0.789-47.324-2.34l-0.81 5.726c-1.266 8.935-9.541 15.16-18.471 13.885-8.937-1.266-15.153-9.536-13.887-18.473l3.057-21.569c0-0.004 3.878-27.356 3.878-27.356-67.312-12.796-118.134-43.914-147.562-90.602-30.369-48.182-35.378-108.709-14.484-175.038 22.964-72.904 46.679-148.227 49.036-232.258-19.007-18.842-36.284-39.441-51.47-61.555-12.14 12.177-23.489 25.432-34.568 38.369-34.515 40.311-70.205 81.994-133.49 109.376-7.275 3.142-15.765 0.617-20.131-6.005l-35.977-54.57c-4.967-7.534-2.887-17.667 4.647-22.637 38.653-25.482 58.754-59.512 82.027-98.912 20.412-34.554 41.474-70.209 75.88-102.178-8.458-33.757-12.741-68.547-12.741-103.561v-49.021h-5.447c-9.024 0-16.34-7.314-16.34-16.34s7.316-16.34 16.34-16.34h860.594c9.026 0 16.34 7.314 16.34 16.34s-7.316 16.338-16.34 16.338zM464.904 872.302h224.918c14.658 0 28.966-0.697 42.744-2.050l-7.66-54.021c-11.303 1.037-23.018 1.604-35.084 1.604h-224.918c-12.066 0-23.779-0.569-35.077-1.604l-3.885 27.402c-0.007 0.041-3.774 26.62-3.774 26.62 13.778 1.355 28.084 2.050 42.736 2.050zM271.429 746.823c24.236 38.452 67.091 64.407 124.505 75.634l6.819-48.108c1.157-8.157 8.151-14.048 16.16-14.048 0.763 0 1.536 0.052 2.314 0.163 8.937 1.266 15.153 9.536 13.887 18.473l-0.693 4.889c9.813 0.85 19.983 1.325 30.485 1.325h224.918c10.501 0 20.672-0.477 30.489-1.327l-0.693-4.891c-1.266-8.935 4.948-17.203 13.885-18.473 0.778-0.111 1.551-0.163 2.316-0.163 8.007 0 15 5.891 16.157 14.048l6.822 48.106c57.409-11.229 100.265-37.184 124.499-75.632 25.090-39.805 28.879-90.911 10.961-147.793-21.214-67.344-43.056-136.693-49.106-214.181-27.879 22.696-58.673 41.936-91.735 57.052-0.832 0.501-1.71 0.948-2.652 1.305-0.296 0.113-0.597 0.196-0.895 0.29-48.041 21.432-100.761 34.184-156.166 36.291v33.025h27.234c9.026 0 16.34 7.314 16.34 16.34s-7.314 16.34-16.34 16.34h-87.149c-9.026 0-16.34-7.314-16.34-16.34s7.314-16.34 16.34-16.34h27.234v-33.029c-54.32-2.089-107.733-14.541-157.059-36.576-0.684-0.259-1.327-0.573-1.952-0.909-11.748-5.32-23.273-11.153-34.507-17.55-20.406-11.617-39.779-24.933-57.945-39.716-6.072 77.41-27.894 146.704-49.091 213.996-17.92 56.893-14.129 107.999 10.959 147.8zM577.363 447.452c51.372 0 100.461-9.946 145.464-27.986-24.478-41.895-81.634-70.057-145.464-70.057-63.954 0-121.215 28.269-145.612 70.299 45.476 18.099 94.707 27.744 145.612 27.744zM194.274 176.718c-34.971 30.182-56.215 66.146-76.763 100.927-21.763 36.844-42.444 71.856-78.874 100.066l19.567 29.681c48.98-24.465 79.591-60.218 109.274-94.885 15.909-18.58 32.363-37.796 51.649-54.666 3.612-3.157 8.432-4.58 13.179-3.859 4.747 0.71 8.941 3.473 11.469 7.554 17.414 28.103 37.916 53.44 60.884 75.758 1.118 0.845 2.131 1.821 2.998 2.919 28.105 26.729 59.849 48.919 94.193 66.074 13.131-23.848 34.448-44.938 61.483-60.483 33.079-19.018 72.51-29.073 114.028-29.073s80.946 10.053 114.028 29.073c26.927 15.484 48.185 36.461 61.327 60.189 128.444-64.486 216.815-197.462 216.815-350.708v-49.021h-55.198v70.808c0 0.366-0.013 0.732-0.037 1.098-2.793 41.511-13.131 81.682-30.726 119.398-3.813 8.179-13.536 11.715-21.717 7.9-8.179-3.815-11.715-13.539-7.9-21.717 15.807-33.881 25.123-69.956 27.698-107.234v-70.253h-696.456v49.021c0 35.491 4.763 70.721 14.157 104.711 1.68 6.085-0.294 12.595-5.076 16.722zM758.175 300.763c24.336-17.981 45.858-39.43 63.965-63.751 3.209-4.307 8.131-6.582 13.118-6.582 3.394 0 6.815 1.052 9.748 3.233 7.238 5.39 8.737 15.628 3.347 22.866-20.029 26.898-43.836 50.623-70.758 70.516-7.253 5.36-17.489 3.826-22.853-3.431-5.36-7.255-3.824-17.486 3.434-22.85z" />
<glyph unicode="&#xe91a;" glyph-name="tea-bag" d="M701.036 31.29h-685.992c-5.626 0-10.78 3.138-13.362 8.136-2.585 4.995-2.163 11.015 1.089 15.606l372.996 526.406c3.635 30.4 12.194 75.91 32.344 121.83 32.326 73.651 101.316 161.443 246.425 161.443 144.729 0 215.161-81.471 248.759-149.817 35.813-72.845 37.841-144.684 37.91-147.705 0.003-0.114 0.003-0.229 0.003-0.343v-225.655h67.748c8.307 0 15.044-6.734 15.044-15.044v-208.716c0-8.31-6.737-15.044-15.044-15.044h-162.971c-8.307 0-15.044 6.734-15.044 15.044v208.716c0 8.31 6.737 15.044 15.044 15.044h65.136v225.439c-0.111 3.328-2.747 70.26-35.247 135.839-43.458 87.693-117.927 132.156-221.341 132.156-103.158 0-176.679-47.995-218.525-142.659-19.788-44.77-27.659-90.109-30.785-118.424l308.745-519.519c2.762-4.652 2.819-10.425 0.141-15.125-2.672-4.703-7.666-7.606-13.073-7.606zM429.497 61.377h245.101l-94.85 159.605c-0.283-0.039-0.569-0.069-0.86-0.090l-156.945-12.64 7.555-146.875zM44.141 61.377h355.227l-7.429 144.456-260.295-20.962-87.503-123.494zM861.032 132.474h132.884v178.629h-132.884v-178.629zM375.331 528.782l-221.004-311.904 236.069 19.012-15.065 292.892zM406.276 512.877l14.12-274.571 142.244 11.457-156.364 263.114z" />
<glyph unicode="&#xe91b;" d="M953.379 89.847c0 0-150.74-113.505-476.69-113.505s-476.69 112.093-476.69 113.505h953.379z" />
<glyph unicode="&#xe91c;" d="M794.483 231.089c-9.746 0-17.655 7.892-17.655 17.655s7.91 17.655 17.655 17.655c105.949 0 184.55 65.818 193.377 158.897h-158.067c-9.746 0-17.655 7.892-17.655 17.655s7.91 17.655 17.655 17.655h176.552c9.746 0 17.655-7.892 17.655-17.655 0-120.779-98.675-211.862-229.517-211.862z" />
<glyph unicode="&#xe91d;" d="M281.476 589.135c-4.52 0-9.039 1.73-12.482 5.173-15.36 15.36-23.834 35.769-23.834 57.468s8.457 42.125 23.834 57.485c8.704 8.669 13.489 20.233 13.489 32.503s-4.785 23.834-13.489 32.521c-6.903 6.903-6.903 18.061 0 24.964 6.886 6.903 18.061 6.903 24.964 0 15.36-15.36 23.834-35.769 23.834-57.485s-8.457-42.125-23.834-57.485c-8.686-8.686-13.489-20.233-13.489-32.521 0-12.253 4.785-23.817 13.489-32.503 6.903-6.903 6.903-18.061 0-24.964-3.425-3.443-7.962-5.155-12.482-5.155z" />
<glyph unicode="&#xe91e;" d="M669.89 589.135c-4.52 0-9.039 1.73-12.482 5.173-15.36 15.36-23.834 35.769-23.834 57.468s8.457 42.125 23.834 57.485c8.704 8.669 13.489 20.233 13.489 32.503s-4.785 23.834-13.489 32.521c-6.903 6.903-6.903 18.061 0 24.964 6.886 6.903 18.061 6.903 24.964 0 15.36-15.36 23.834-35.769 23.834-57.485s-8.457-42.125-23.834-57.485c-8.686-8.686-13.489-20.233-13.489-32.521 0-12.253 4.785-23.817 13.489-32.503 6.903-6.903 6.903-18.061 0-24.964-3.425-3.443-7.962-5.155-12.482-5.155z" />
<glyph unicode="&#xe91f;" d="M474.589 642.101c-4.52 0-9.039 1.73-12.482 5.173-19.527 19.509-30.279 45.444-30.279 73.039s10.752 53.513 30.279 73.057c12.853 12.871 19.933 29.926 19.933 48.075s-7.080 35.222-19.933 48.093c-6.903 6.903-6.903 18.061 0 24.964s18.061 6.903 24.964 0c19.527-19.527 30.279-45.462 30.279-73.057s-10.752-53.513-30.279-73.039c-12.853-12.871-19.933-29.926-19.933-48.093 0-18.132 7.080-35.204 19.933-48.075 6.903-6.903 6.903-18.061 0-24.964-3.425-3.46-7.962-5.173-12.482-5.173z" />
<glyph unicode="&#xe920;" d="M290.216 89.847h372.93c125.087 75.211 184.302 226.022 184.302 406.069h-741.517c0-180.047 59.215-330.858 184.285-406.069z" />
<glyph unicode="&#xe921;" d="M353.103 319.364c-9.746 0-17.655 7.892-17.655 17.655v176.552c0 9.763 7.91 17.655 17.655 17.655s17.655-7.892 17.655-17.655v-176.552c0-9.746-7.91-17.655-17.655-17.655z" />
<glyph unicode="&#xe922;" d="M271.89 372.33h162.428v-203.034h-162.428v203.034z" />
<glyph unicode="&#xe923;" d="M271.89 248.744h162.428v-79.448h-162.428v79.448z" />
</font>
</defs>
</svg>
